# xmcd
#
# Track frame offsets:
# 150
# 15414
# 25741
# 41302
# 57022
# 69183
# 85710
# 111376
# 124881
# 145481
# 160278
# 178126
# 198022
# 214650
# 230965
# 248391
# 269923
# 288838
# 303831
# 320475
#
# Disc length: 4438 seconds
#
# Revision: 0
# Processed by: cddbd v1.5.2PL0 Copyright (c) Steve Scherf et al.
# Submitted via: CoinsHifi v1.9g contact@coinshifi.com
#
DISCID=15115414
DTITLE=albert pla and leon and zombies and nandez - fiesta espanola
DYEAR=2005
DGENRE=Latino
TTITLE0=rumba tres
TTITLE1=los 4 de juan
TTITLE2=albert pla
TTITLE3=daniel
TTITLE4=mama ladilla
TTITLE5=esperanza
TTITLE6=pablo
TTITLE7=tonino
TTITLE8=diego
TTITLE9=pata
TTITLE10=imma
TTITLE11=reyes
TTITLE12=victor
TTITLE13=jose
TTITLE14=sobraos
TTITLE15=adrian
TTITLE16=leal
TTITLE17=poncho
TTITLE18=triana
TTITLE19=manolos
EXTD=
EXTT0=Instrumental
EXTT1=Instrumental
EXTT2=Instrumental
EXTT3=Instrumental
EXTT4=Instrumental
EXTT5=Instrumental
EXTT6=Instrumental
EXTT7=Instrumental
EXTT8=Instrumental
EXTT9=Instrumental
EXTT10=Instrumental
EXTT11=Instrumental
EXTT12=Instrumental
EXTT13=Instrumental
EXTT14=Instrumental
EXTT15=Instrumental
EXTT16=Instrumental
EXTT17=Instrumental
EXTT18=Instrumental
EXTT19=Instrumental
PLAYORDER=
